<?xml version="1.0" encoding="UTF-8"?>
<svg width="218px" height="48px" viewBox="0 0 218 48" version="1.1" xmlns="http://www.w3.org/2000/svg" xmlns:xlink="http://www.w3.org/1999/xlink">
    <!-- Generator: Sketch 51.3 (57544) - http://www.bohemiancoding.com/sketch -->
    <title>logo</title>
    <desc>Created with Sketch.</desc>
    <defs></defs>
    <g id="Page-1" stroke="none" stroke-width="1" fill="none" fill-rule="evenodd">
        <g id="logo" fill-rule="nonzero">
            <path d="M85.7763229,38.0195516 L80.0034081,29.1083408 L75.3540807,29.1083408 L75.3540807,38.0195516 L69,38.0195516 L69,10.8984753 L82.5605381,10.8984753 C88.6046637,10.8984753 92.169148,15.5478027 92.169148,20.0421525 C92.169148,23.529148 90.2319283,26.8224215 86.6286996,28.2947085 L93.1765022,38.0195516 L85.7763229,38.0195516 Z M75.3540807,16.6326457 L75.3540807,23.4904036 L82.0956054,23.4904036 C84.3815247,23.4904036 85.9313004,21.9406278 85.9313004,20.0421525 C85.9313004,18.1824215 84.3427803,16.6326457 82.3668161,16.6326457 L75.3540807,16.6326457 Z M104.64181,38.5619731 C98.2102405,38.5619731 93.7933795,34.3388341 93.7933795,28.1784753 C93.7933795,22.250583 97.9390298,17.7174888 104.254366,17.7174888 C110.802169,17.7174888 114.599119,22.250583 114.599119,27.946009 C114.599119,28.6434081 114.560375,29.3408072 114.444142,29.9994619 L99.8375051,29.9994619 C100.224949,31.8591928 101.581003,33.4089686 104.758043,33.4089686 C106.850241,33.4089686 108.051317,32.5953363 108.709971,31.3942601 L114.289164,33.0215247 C113.243066,35.4624215 109.911048,38.5619731 104.64181,38.5619731 Z M99.8375051,26.28 L108.554994,26.28 C108.361272,24.4977578 106.772752,22.9092377 104.215622,22.9092377 C101.658492,22.9092377 100.108716,24.613991 99.8375051,26.28 Z M141.445952,17.7174888 C146.134024,17.7174888 149.311064,20.7395516 149.311064,26.3574888 L149.311064,38.0195516 L143.111961,38.0195516 L143.111961,27.752287 C143.111961,25.1564126 142.298329,23.4516592 139.973665,23.4516592 C137.532768,23.4516592 136.525414,25.195157 136.525414,28.2172197 L136.525414,38.0195516 L130.326311,38.0195516 L130.326311,27.752287 C130.326311,25.1564126 129.512678,23.4516592 127.188015,23.4516592 C124.747118,23.4516592 123.739764,25.195157 123.739764,28.2172197 L123.739764,38.0195516 L117.54066,38.0195516 L117.54066,18.2599103 L123.739764,18.2599103 L123.739764,20.19713 C124.979584,18.7635874 126.839315,17.7174888 129.202723,17.7174888 C131.876086,17.7174888 133.774562,18.6860987 134.936894,20.3521076 C136.292947,18.918565 138.423889,17.7174888 141.445952,17.7174888 Z M161.667493,38.5619731 C156.320766,38.5619731 152.058883,34.1451121 152.058883,28.1397309 C152.058883,22.1343498 156.320766,17.7174888 161.667493,17.7174888 C164.10839,17.7174888 166.006865,18.6086099 167.362919,20.0808969 L167.362919,18.2599103 L173.562022,18.2599103 L173.562022,38.0195516 L167.362919,38.0195516 L167.362919,36.198565 C166.006865,37.6321076 164.10839,38.5619731 161.667493,38.5619731 Z M162.79108,33.0602691 C165.464444,33.0602691 167.517896,31.0843049 167.517896,28.1009865 C167.517896,25.1564126 165.464444,23.2191928 162.79108,23.2191928 C160.117717,23.2191928 158.180497,25.1564126 158.180497,28.1009865 C158.180497,31.0843049 160.117717,33.0602691 162.79108,33.0602691 Z M190.606523,38.0195516 L185.763473,31.1617937 L183.864998,33.3314798 L183.864998,38.0195516 L177.665895,38.0195516 L177.665895,9.7361435 L183.864998,9.7361435 L183.864998,25.5051121 L189.79289,18.2599103 L196.921859,18.2599103 L189.599168,26.7061883 L197.580514,38.0195516 L190.606523,38.0195516 Z M207.88349,38.5619731 C201.45192,38.5619731 197.035059,34.3388341 197.035059,28.1784753 C197.035059,22.250583 201.180709,17.7174888 207.496046,17.7174888 C214.043848,17.7174888 217.840799,22.250583 217.840799,27.946009 C217.840799,28.6434081 217.802055,29.3408072 217.685821,29.9994619 L203.079185,29.9994619 C203.466629,31.8591928 204.822682,33.4089686 207.999723,33.4089686 C210.09192,33.4089686 211.292996,32.5953363 211.951651,31.3942601 L217.530844,33.0215247 C216.484745,35.4624215 213.152727,38.5619731 207.88349,38.5619731 Z M203.079185,26.28 L211.796673,26.28 C211.602951,24.4977578 210.014431,22.9092377 207.457301,22.9092377 C204.900171,22.9092377 203.350395,24.613991 203.079185,26.28 Z" id="Remake.js" fill="#0F2F70"></path>
            <g id="Group-Copy">
                <path d="M45.8493017,12 L44.1482848,7.33795353 L11.128067,7.33795353 L9.38250663,12 L4.9946587,12 L7.99335044,3.99108751 C8.16503564,3.53255031 8.60325408,3.22869955 9.0928786,3.22869955 L46.2017941,3.22869955 C46.6950326,3.22869955 47.1356805,3.53698533 47.304744,4.00034447 L50.2235372,12 L45.8493017,12 Z" id="Combined-Shape" fill="#E8590C"></path>
                <path d="M34.4541707,36 L33.8902405,33.7545862 L20.877812,33.7545862 L20.1686265,36 L15.859288,36 L17.6071932,30.465806 C17.7614555,29.9773826 18.2145477,29.6453322 18.726753,29.6453322 L36.1794114,29.6453322 C36.7176827,29.6453322 37.1870072,30.0113621 37.3181209,30.5334207 L38.6910389,36 L34.4541707,36 Z" id="Combined-Shape" fill="#9FB9F0"></path>
                <path d="M19.8527891,37 L17.8185803,43.4406849 L36.3228804,43.4406849 L34.7053182,37 L38.9421864,37 L41.3167604,46.4548963 C41.4352189,46.9265653 41.1488852,47.4049581 40.6772163,47.5234166 C40.6070805,47.541031 40.535042,47.5499389 40.4627282,47.5499389 L13.4129275,47.5499389 C12.9266107,47.5499389 12.5323731,47.1557012 12.5323731,46.6693844 C12.5323731,46.5794152 12.5461613,46.4899773 12.5732576,46.4041853 L15.5434506,37 L19.8527891,37 Z" id="Combined-Shape" fill="#1656DB"></path>
                <path d="M37.7383872,22 L37.1518026,20.2527517 L17.2048485,20.2527517 L16.6009834,22 L12.2532339,22 L14.0040702,16.9340585 C14.1675929,16.4609151 14.6131351,16.1434978 15.1137391,16.1434978 L39.2625805,16.1434978 C39.76701,16.1434978 40.2150634,16.4657065 40.3756044,16.943907 L42.0730314,22 L37.7383872,22 Z" id="Combined-Shape" fill="#F79DBD"></path>
                <path d="M24.9881777,8.03807039 L21.8485025,11.1777456 C20.9888078,12.0374404 19.5949672,12.0374404 18.7352725,11.1777456 C17.8755777,10.3180509 17.8755777,8.92421035 18.7352725,8.06451562 L25.6287704,1.17101773 C26.6030911,0.196697038 28.182777,0.196697038 29.1570977,1.17101773 L36.0505956,8.06451562 C36.9102903,8.92421035 36.9102903,10.3180509 36.0505956,11.1777456 C35.1909009,12.0374404 33.7970603,12.0374404 32.9373656,11.1777456 L29.684468,7.92484806 L29.684468,37.8638402 C29.684468,39.1606849 28.6331676,40.2119853 27.3363229,40.2119853 C26.0394781,40.2119853 24.9881777,39.1606849 24.9881777,37.8638402 L24.9881777,8.03807039 Z" id="Combined-Shape" fill="#192E5B"></path>
                <path d="M16.2553741,23 L12.7932792,33.0173672 L41.4371278,33.0173672 L38.0741063,23 L42.4087505,23 L46.8915249,36.3527532 C46.9947091,36.6601062 46.8291977,36.9929125 46.5218446,37.0960968 C46.4616289,37.1163123 46.3985314,37.1266211 46.3350129,37.1266211 L7.84932568,37.1266211 C7.52511449,37.1266211 7.2622894,36.863796 7.2622894,36.5395849 C7.2622894,36.4743206 7.2731726,36.4095131 7.29449123,36.3478289 L11.9076246,23 L16.2553741,23 Z" id="Combined-Shape" fill="#EC135F"></path>
                <path d="M9.38250663,12 L6.07271903,20.839788 L49.0746298,20.839788 L45.8493017,12 L50.2235372,12 L54.6605829,24.1607919 C54.7717102,24.4653631 54.614893,24.8023533 54.3103218,24.9134806 C54.2458451,24.9370059 54.1777424,24.949042 54.109108,24.949042 L0.992920087,24.949042 C0.668708901,24.949042 0.405883805,24.6862169 0.405883805,24.3620057 C0.405883805,24.2917135 0.418508274,24.2219926 0.443156008,24.1561634 L4.9946587,12 L9.38250663,12 Z" id="Combined-Shape" fill="#E8590C"></path>
            </g>
        </g>
    </g>
</svg>