<svg version="1" xmlns="http://www.w3.org/2000/svg" width="746.667" height="746.667" viewBox="0 0 560.000000 560.000000"><path d="M270.1 69.1c-2.7 1.2-8.8 6.2-15.6 12.9l-11.1 11H109l-2.9 2.7c-2.5 2.4-8.5 17.4-37.6 95.1-19 50.7-34.5 93-34.5 94 0 4.2.4 4.2 50.2 4.2 26.3 0 47.8.3 47.8.6s-8.1 24-18 52.6-18 52.6-18 53.3c0 .6.8 1.9 1.8 2.8 1.7 1.5 5.7 1.7 37.6 1.7 28.2 0 35.7.3 35.3 1.2-.2.7-6.4 20.3-13.7 43.5-12.1 38.5-13.2 42.4-12.1 45.1.7 1.6 2.4 3.4 3.7 4.1 1.8.8 36.6 1.1 127 1.1h124.6l2.9-2.9c1.6-1.6 2.9-3.5 2.9-4.3 0-.7-4.9-20.8-10.9-44.6L384.2 400h34.7c25.7 0 35-.3 35.9-1.2.7-.7 1.2-2.4 1.2-3.9s-7.6-25.3-17-52.9c-9.3-27.7-17-50.9-17-51.6 0-1.2 8.6-1.4 51.5-1.4H525l1.2-2.4c.9-2.2-3.2-14.2-32.8-95.3-26.2-71.9-34.4-93.4-36.5-95.6l-2.7-2.7H314.6l-11.1-11c-12-11.8-17.1-15-24.5-15-2.5 0-6.5 1-8.9 2.1zm-67.3 64.6c-5.9 6.2-7.9 10.2-8 16.3 0 10.6 7.4 18.9 17.6 19.8 9.3.8 11.6-.7 28.8-17.6l15.8-15.5v116.1h-85.5c-47.1-.1-85.7-.4-85.9-.7-.3-.5 25.8-71 43-116.4l2.6-6.7h76.2l-4.6 4.7zm228.7-3.8C432.3 131.3 476 251 476 252c0 .4-39.6.8-88 .8h-88V135.6l15.9 15.7c9.2 9.1 17.4 16.3 19.4 17.2 13.2 5.5 27.8-3.7 27.9-17.7.1-6.6-1.9-10.7-8-17.1l-4.6-4.7h40.1c23.8 0 40.4.4 40.8.9zM257 326v37H146.1l2-5.8c1.1-3.1 6.5-18.5 11.9-34.2 5.4-15.7 10.3-29.7 10.9-31.3l1.1-2.7h85v37zm127.3-29.8c1.4 4 7 20.7 12.5 37l10.1 29.8H300v-74h81.8l2.5 7.2zM257.2 406.3c1.1 13.4 9.3 21.7 21.3 21.7s20.2-8.3 21.3-21.7l.5-6.3h22.8c12.6 0 22.9.2 22.9.5 0 .2 3.2 12.7 7 27.8 3.9 15 7 27.9 7 28.5 0 .9-20 1.2-84 1.2-46.2 0-84-.2-84-.5s1.5-5.4 3.4-11.3 6-18.7 9.1-28.5l5.6-17.7h46.6l.5 6.3z"/></svg>